<svg xmlns="http://www.w3.org/2000/svg" width="479.533" height="548.268"><defs><clipPath id="a"><path d="M0 0h960v540H0z" clip-rule="evenodd"/></clipPath><clipPath id="b"><path d="M0 0h960v540H0z" clip-rule="evenodd"/></clipPath><clipPath id="c"><path d="M0 0h960v540H0z" clip-rule="evenodd"/></clipPath><clipPath id="d"><path d="M0 0h960v540H0z" clip-rule="evenodd"/></clipPath><clipPath id="e"><path d="M0 0h960v540H0z" clip-rule="evenodd"/></clipPath><clipPath id="f"><path d="M0 0h960v540H0z" clip-rule="evenodd"/></clipPath><clipPath id="g"><path d="M0 0h960v540H0z" clip-rule="evenodd"/></clipPath><clipPath id="h"><path d="M0 0h960v540H0z" clip-rule="evenodd"/></clipPath><clipPath id="i"><path d="M0 0h960v540H0z" clip-rule="evenodd"/></clipPath><clipPath id="j"><path d="M0 0h960v540H0z" clip-rule="evenodd"/></clipPath><clipPath id="k"><path d="M0 0h960v540H0z" clip-rule="evenodd"/></clipPath><clipPath id="l"><path d="M0 0h960v540H0z" clip-rule="evenodd"/></clipPath><clipPath id="m"><path d="M0 0h960v540H0z" clip-rule="evenodd"/></clipPath><clipPath id="n"><path d="M0 0h960v540H0z" clip-rule="evenodd"/></clipPath><clipPath id="o"><path d="M0 0h960v540H0z" clip-rule="evenodd"/></clipPath><clipPath id="p"><path d="M0 0h960v540H0z" clip-rule="evenodd"/></clipPath><clipPath id="q"><path d="M0 0h960v540H0z" clip-rule="evenodd"/></clipPath><clipPath id="r"><path d="M0 0h960v540H0z" clip-rule="evenodd"/></clipPath><clipPath id="s"><path d="M0 0h960v540H0z" clip-rule="evenodd"/></clipPath><clipPath id="t"><path d="M0 0h960v540H0z" clip-rule="evenodd"/></clipPath><clipPath id="u"><path d="M0 0h960v540H0z" clip-rule="evenodd"/></clipPath><clipPath id="v"><path d="M0 0h960v540H0z" clip-rule="evenodd"/></clipPath><clipPath id="w"><path d="M0 0h960v540H0z" clip-rule="evenodd"/></clipPath><clipPath id="x"><path d="M0 0h960v540H0z" clip-rule="evenodd"/></clipPath><clipPath id="y"><path d="M0 0h960v540H0z" clip-rule="evenodd"/></clipPath><clipPath id="z"><path d="M0 540h960V0H0" clip-rule="evenodd"/></clipPath><clipPath id="A"><path d="M0 0h960v540H0z" clip-rule="evenodd"/></clipPath><clipPath id="B"><path d="M0 0h960v540H0z" clip-rule="evenodd"/></clipPath><clipPath id="C"><path d="M0 0h960v540H0z" clip-rule="evenodd"/></clipPath><clipPath id="D"><path d="M0 0h960v540H0z" clip-rule="evenodd"/></clipPath><clipPath id="E"><path d="M0 0h960v540H0z" clip-rule="evenodd"/></clipPath><clipPath id="F"><path d="M0 0h960v540H0z" clip-rule="evenodd"/></clipPath><clipPath id="G"><path d="M0 0h960v540H0z" clip-rule="evenodd"/></clipPath><clipPath id="H"><path d="M0 0h960v540H0z" clip-rule="evenodd"/></clipPath><clipPath id="I"><path d="M0 0h960v540H0z" clip-rule="evenodd"/></clipPath></defs><path d="M101.178 431.108h176.8l28.48 56.08-28.48 56.08h-176.8z" fill="#ffe699" fill-rule="evenodd"/><path d="M101.178 244.068h177.827l27.453 56.08-27.453 56.08H101.178z" fill="#c5e0b4" fill-rule="evenodd"/><path d="M101.178 57.188h176.84l28.44 56-28.44 56h-176.84z" fill="#d9d9d9" fill-rule="evenodd"/><path d="M49.498 113.028c0-31.013 25.107-56.16 56.08-56.16s56.08 25.147 56.08 56.16c0 31.014-25.107 56.16-56.08 56.16s-56.08-25.146-56.08-56.16z" fill="#7f7f7f" fill-rule="evenodd"/><g clip-path="url(#a)" transform="matrix(1.33333 0 0 -1.33333 -96.902 679.428)"><text transform="matrix(1 0 0 -1 198.24 432.36)" style="-inkscape-font-specification:Calibri" font-weight="400" font-size="18" font-family="Calibri"><tspan x="0 9.2340002 15.228 24.191999 33.695999 39.978001 44.009998 53.369999" y="0">Preprint</tspan></text></g><g clip-path="url(#b)" font-weight="400" transform="matrix(1.33333 0 0 -1.33333 -96.902 679.428)"><text transform="matrix(1 0 0 -1 199.34 295.8)" style="-inkscape-font-specification:Calibri" font-size="18" font-family="Calibri"><tspan x="0 8.8739996 18.360001 25.200001 31.23 40.68 46.962002 50.993999 60.354" y="0">Postprint</tspan></text><text style="line-height:1.25;-inkscape-font-specification:'sans-serif, Normal';font-variant-ligatures:normal;font-variant-caps:normal;font-variant-numeric:normal;font-feature-settings:normal;text-align:center" x="482.05" y="-320.507" transform="scale(1 -1)" font-size="15" font-family="sans-serif" letter-spacing="0" word-spacing="0" text-anchor="middle" stroke-width=".75"/></g><path d="M49.498 300.148c0-30.973 25.107-56.08 56.08-56.08s56.08 25.107 56.08 56.08c0 30.974-25.107 56.08-56.08 56.08s-56.08-25.106-56.08-56.08z" fill="#008300" fill-rule="evenodd"/><g clip-path="url(#c)" transform="matrix(1.33333 0 0 -1.33333 -96.902 679.428)"><text transform="matrix(1 0 0 -1 198.24 159.79)" style="-inkscape-font-specification:Calibri" font-weight="400" font-size="18" font-family="Calibri"><tspan x="0 9.2340002 18.684 28.17 32.256001 36.341999 43.380001 52.883999 61.848" y="0">Published</tspan></text></g><g clip-path="url(#d)" transform="matrix(1.33333 0 0 -1.33333 -96.902 679.428)"><text transform="matrix(1 0 0 -1 199.34 279.96)" style="-inkscape-font-specification:Calibri" font-weight="400" font-size="12" font-family="Calibri"><tspan x="0 6.948 13.308 17.375999 23.724001 30.048" y="0">Author</tspan></text></g><g clip-path="url(#e)" transform="matrix(1.33333 0 0 -1.33333 -96.902 679.428)"><text transform="matrix(1 0 0 -1 233.66 279.96)" style="-inkscape-font-specification:Calibri" font-weight="400" font-size="12" font-family="Calibri"><tspan x="0" y="0">-</tspan></text></g><g clip-path="url(#f)" transform="matrix(1.33333 0 0 -1.33333 -96.902 679.428)"><text transform="matrix(1 0 0 -1 237.38 279.96)" style="-inkscape-font-specification:Calibri" font-weight="400" font-size="12" font-family="Calibri"><tspan x="0 5.6399999 10.68 15.72 21.695999 28.068001 32.028 38.004002" y="0">accepted</tspan></text></g><g clip-path="url(#g)" transform="matrix(1.33333 0 0 -1.33333 -96.902 679.428)"><text transform="matrix(1 0 0 -1 199.34 265.56)" style="-inkscape-font-specification:Calibri" font-weight="400" font-size="12" font-family="Calibri"><tspan x="0 9.5880003 15.336 21.708 28.056 32.748001 37.776001 41.964001 44.723999 51.084 55.152 57.551998 61.188 68.136002 75.084 85.379997" y="0">manuscript (AAM)</tspan></text></g><g clip-path="url(#h)" transform="matrix(1.33333 0 0 -1.33333 -96.902 679.428)"><text transform="matrix(1 0 0 -1 111.7 368.35)" style="-inkscape-font-specification:Calibri" font-weight="400" font-size="12" font-family="Calibri"><tspan x="0 5.5079999 11.868 18.216 27.804001 30.563999 34.535999 38.375999 44.352001 50.616001 53.015999 56.976002 63.299999 66.084 68.952003 75.311996 81.660004 85.848 92.208 97.956001" y="0">Submitted to journal</tspan></text></g><g clip-path="url(#i)" transform="matrix(1.33333 0 0 -1.33333 -96.902 679.428)"><text transform="matrix(1 0 0 -1 111.7 353.95)" style="-inkscape-font-specification:Calibri" font-weight="400" font-size="12" font-family="Calibri"><tspan x="0 6 11.976 17.988001 22.176001 24.827999 28.908001 34.883999 40.307999 43.068001 49.043999" y="0">Peer review</tspan></text></g><g clip-path="url(#j)" transform="matrix(1.33333 0 0 -1.33333 -96.902 679.428)"><text transform="matrix(1 0 0 -1 111.7 339.55)" style="-inkscape-font-specification:Calibri" font-weight="400" font-size="12" font-family="Calibri"><tspan x="0 6.948 13.308 17.375999 23.724001 30.048 34.271999 36.672001 41.591999 47.916 52.139999 56.220001 62.195999 67.272003 71.328003 74.087997 80.412003 86.795998" y="0">Author corrections</tspan></text></g><g clip-path="url(#k)" transform="matrix(1.33333 0 0 -1.33333 -96.902 679.428)"><text transform="matrix(1 0 0 -1 162.41 493.7)" style="-inkscape-font-specification:Calibri" font-weight="400" font-size="12" font-family="Calibri"><tspan x="0 6.2399998 12.564 18.948 25.296 31.643999 36.335999 38.844002 45.167999 48.911999 51.551998 57.900002 61.860001 67.5 71.208 75.276001 78.036003 84.384003" y="0">Rounds of drafting</tspan></text></g><g clip-path="url(#l)" transform="matrix(1.33333 0 0 -1.33333 -96.902 679.428)"><text transform="matrix(1 0 0 -1 162.41 479.3)" style="-inkscape-font-specification:Calibri" font-weight="400" font-size="12" font-family="Calibri"><tspan x="0 8.184 10.896 13.656 19.92 23.4 29.724001 33.948002 43.535999 49.284 52.043999 54.588001 58.068001 64.043999 70.056 76.403999 82.643997 88.391998 93.468002" y="0">&amp; informal feedback</tspan></text></g><path d="M107.485 74.975c9.653-27.347-4.72-57.333-32.094-66.973-27.386-9.64-57.416 4.706-67.073 32.04-8.57 24.266 1.73 51.16 24.33 63.506l13.97-8.56-5.907-18.226c-10.664-9.467-11.616-25.747-2.12-36.387 9.48-10.627 25.827-11.587 36.494-2.12a25.74 25.74 0 0 1 7.186 27.84zM56.871 107.868c-48.794 26.387-66.26 86.094-39.008 133.347 5.898 10.227 13.64 19.347 22.862 26.92l16.88-5.627-.08-18.253c-29.37-25.707-31.382-69.293-4.494-97.36a71.547 71.547 0 0 1 18.387-13.813z" fill="#7f7f7f" fill-rule="evenodd"/><path d="M49.498 487.188c0-30.973 25.107-56.08 56.08-56.08s56.08 25.107 56.08 56.08c0 30.974-25.107 56.08-56.08 56.08s-56.08-25.106-56.08-56.08z" fill="#ef7b0b" fill-rule="evenodd"/><g clip-path="url(#m)" transform="matrix(1.33333 0 0 -1.33333 -96.902 679.428)"><text transform="matrix(1 0 0 -1 198.24 145.27)" style="-inkscape-font-specification:Calibri" font-weight="400" font-size="12" font-family="Calibri"><tspan x="0 6.2399998 12.216 16.200001 20.892 23.652 29.976 36.348 38.987999 45.312 49.056 51.695999 55.776001 61.751999 66.695999 73.019997 77.136002" y="0">Version of record</tspan></text></g><g clip-path="url(#n)" transform="matrix(1.33333 0 0 -1.33333 -96.902 679.428)"><text transform="matrix(1 0 0 -1 198.24 130.87)" style="-inkscape-font-specification:Calibri" font-weight="400" font-size="12" font-family="Calibri"><tspan x="0 6.204 13.668 19.176001 21.827999 26.496 29.243999 36.683998 42.528 52.872002 57.911999 60.551998 65.220001 67.968002 74.195999 84.515999" y="0">PDF / HTML / XML</tspan></text></g><g clip-path="url(#o)" transform="matrix(1.33333 0 0 -1.33333 -96.902 679.428)"><text transform="matrix(1 0 0 -1 198.24 116.47)" style="-inkscape-font-specification:Calibri" font-weight="400" font-size="12" font-family="Calibri"><tspan x="0 7.428 15.372 18.348 21.096001 24.804001 28.764 35.088001 44.712002 47.352001 50.220001 56.580002 62.928001 67.115997 73.475998 79.223999" y="0">DOI from journal</tspan></text></g><g clip-path="url(#p)" transform="matrix(1.33333 0 0 -1.33333 -96.902 679.428)"><text transform="matrix(1 0 0 -1 111.7 227.35)" style="-inkscape-font-specification:Calibri" font-weight="400" font-size="12" font-family="Calibri"><tspan x="0 6.3600001 12.684 19.068001" y="0">Copy</tspan></text></g><g clip-path="url(#q)" transform="matrix(1.33333 0 0 -1.33333 -96.902 679.428)"><text transform="matrix(1 0 0 -1 136.2 227.35)" style="-inkscape-font-specification:Calibri" font-weight="400" font-size="12" font-family="Calibri"><tspan x="0" y="0">-</tspan></text></g><g clip-path="url(#r)" transform="matrix(1.33333 0 0 -1.33333 -96.902 679.428)"><text transform="matrix(1 0 0 -1 139.92 227.35)" style="-inkscape-font-specification:Calibri" font-weight="400" font-size="12" font-family="Calibri"><tspan x="0 5.9759998 12.348 15.108 18.948 24.924" y="0">edited</tspan></text></g><g clip-path="url(#s)" transform="matrix(1.33333 0 0 -1.33333 -96.902 679.428)"><text transform="matrix(1 0 0 -1 111.7 212.95)" style="-inkscape-font-specification:Calibri" font-weight="400" font-size="12" font-family="Calibri"><tspan x="0 5.2800002 10.716 17.016001 23.028 27.719999 33.588001" y="0">Typeset</tspan></text></g><g clip-path="url(#t)" transform="matrix(1.33333 0 0 -1.33333 -96.902 679.428)"><text transform="matrix(1 0 0 -1 111.7 198.55)" style="-inkscape-font-specification:Calibri" font-weight="400" font-size="12" font-family="Calibri"><tspan x="0 5.4000001 11.724 15.948 25.535999 31.188 35.147999 39.108002 45.084" y="0">Formatted</tspan></text></g><g clip-path="url(#u)" transform="matrix(1.33333 0 0 -1.33333 -96.902 679.428)"><text transform="matrix(1 0 0 -1 309.62 315.38)" style="-inkscape-font-specification:Calibri" font-weight="400" font-size="12" font-family="Calibri"><tspan x="0 6.3600001 12.108 18.468 21.108 26.856001 29.615999 38.028 43.548 48.827999 53.52 56.375999 62.723999 68.699997 71.363998 76.056 82.391998 88.139999 92.232002 98.208 104.58 107.1 109.86 116.208" y="0">Can always be shared in</tspan></text></g><g clip-path="url(#v)" transform="matrix(1.33333 0 0 -1.33333 -96.902 679.428)"><text transform="matrix(1 0 0 -1 309.62 300.98)" style="-inkscape-font-specification:Calibri" font-weight="400" font-size="12" font-family="Calibri"><tspan x="0 5.7480001 8.5080004 14.16 18.228001 24.204 30.216 36.563999 39.084 46.883999 53.832001 56.712002 60.792 66.767998 73.139999 79.463997 84.155998 86.916 90.900002 97.223999 101.448 106.884" y="0">a green OA repository</tspan></text></g><g clip-path="url(#w)" transform="matrix(1.33333 0 0 -1.33333 -96.902 679.428)"><text transform="matrix(1 0 0 -1 309.62 286.58)" style="-inkscape-font-specification:Calibri" font-weight="400" font-size="12" font-family="Calibri"><tspan x="0 5.6399999 9.3479996 13.308 19.284 23.496 26.016001 31.764 36.84 41.855999 47.832001 54.203999 58.164001 64.139999 70.512001 73.031998 79.379997 84.816002" y="0">after accepted by</tspan></text></g><g clip-path="url(#x)" transform="matrix(1.33333 0 0 -1.33333 -96.902 679.428)"><text transform="matrix(1 0 0 -1 309.62 272.18)" style="-inkscape-font-specification:Calibri" font-weight="400" font-size="12" font-family="Calibri"><tspan x="0 2.868 9.2279997 15.576 19.764 26.124001 31.872 34.632 37.043999 40.68 45.324001 51.647999 61.271999 67.152 71.220001 73.980003 83.568001 89.543999 94.236" y="0">journal (sometimes</tspan></text></g><g clip-path="url(#y)" transform="matrix(1.33333 0 0 -1.33333 -96.902 679.428)"><text transform="matrix(1 0 0 -1 309.62 257.76)" style="-inkscape-font-specification:Calibri" font-weight="400" font-size="12" font-family="Calibri"><tspan x="0 5.6399999 9.3479996 13.308 19.284 23.496 26.016001 31.992001 41.580002 47.964001 53.712002 57.804001 63.324001 69.648003" y="0">after embargo)</tspan></text></g><path d="M129.898 283.748v54.48h-51.04v-68.666l36.987-.134M89.098 302.228h30.44M89.098 308.788h30.44M89.098 315.348h30.44M89.098 321.908h30.44M89.098 328.628h30.44M89.098 295.508h30.44M89.098 288.948h30.44" fill="none" stroke="#fff" stroke-width="3.3599916" stroke-linecap="round" stroke-linejoin="round" stroke-miterlimit="10"/><path d="M138.031 272.868c-.066 3.467.08 7.174 0 10.64h-21.573v-21.12l18.467.094M122.538 271.988l5.253 5.494M127.658 277.682l13.853-15.774M129.898 472.828v54.36h-51.04v-68.506l36.987-.134M87.818 472.628h50.28" fill="none" stroke="#fff" stroke-width="3.3599916" stroke-linecap="round" stroke-linejoin="round" stroke-miterlimit="10"/><path d="M138.031 461.988c-.066 3.467.08 7.174 0 10.64h-21.573v-21.12l18.467.094M122.538 460.948l5.253 5.494M127.658 466.642l13.853-15.774M87.818 492.308h13.467M87.818 498.868h13.467M87.818 505.428h13.467M87.818 511.828h13.467M87.818 518.388h13.467M87.818 479.348h33.573M107.818 492.308h13.467M107.818 498.868h13.467M107.818 519.188h13.28v-12.32h-13.28zM129.898 97.668v54.48h-51.04V83.482l36.987-.134M89.098 116.148h30.44M89.098 122.708h30.44M89.098 129.268h30.44M89.098 135.828h30.44M89.098 142.548h30.44M89.098 109.428h30.44M89.098 102.868h14.453" fill="none" stroke="#fff" stroke-width="3.3599916" stroke-linecap="round" stroke-linejoin="round" stroke-miterlimit="10"/><g clip-path="url(#z)" transform="matrix(1.33333 0 0 -1.33333 -96.902 679.428)"><path d="M177.62 451.06l-16.75-17.41-5.37-1.5 1.29 5.42 16.75 17.42z" fill="none" stroke="#fff" stroke-width="2.5" stroke-linecap="round" stroke-linejoin="round" stroke-miterlimit="10"/></g><g clip-path="url(#A)" transform="matrix(1.33333 0 0 -1.33333 -96.902 679.428)"><text transform="matrix(1 0 0 -1 309.62 449.57)" style="-inkscape-font-specification:Calibri" font-weight="400" font-size="12" font-family="Calibri"><tspan x="0 6.3600001 12.108 18.468 21.108 26.856001 29.615999 38.028 43.548 48.827999 53.52 56.375999 62.723999 68.699997 71.363998 76.056 82.391998 88.139999 92.232002 98.208 104.58 107.1 109.86 116.208" y="0">Can always be shared in</tspan></text></g><g clip-path="url(#B)" transform="matrix(1.33333 0 0 -1.33333 -96.902 679.428)"><text transform="matrix(1 0 0 -1 309.62 435.17)" style="-inkscape-font-specification:Calibri" font-weight="400" font-size="12" font-family="Calibri"><tspan x="0 5.7480001 8.5080004 14.16 18.228001 24.204 30.216 36.563999 39.084 46.883999 53.832001 56.712002 60.792 66.767998 73.139999 79.463997 84.155998 86.916 90.900002 97.223999 101.448 106.884 109.248 114.888 118.956" y="0">a green OA repository at</tspan></text></g><g clip-path="url(#C)" transform="matrix(1.33333 0 0 -1.33333 -96.902 679.428)"><text transform="matrix(1 0 0 -1 309.62 420.77)" style="-inkscape-font-specification:Calibri" font-weight="400" font-size="12" font-family="Calibri"><tspan x="0 5.7480001 11.88 17.316 19.92 23.988001 26.747999 36.335999" y="0">any time</tspan></text></g><g clip-path="url(#D)" transform="matrix(1.33333 0 0 -1.33333 -96.902 679.428)"><text transform="matrix(1 0 0 -1 309.62 167.09)" style="-inkscape-font-specification:Calibri" font-weight="400" font-size="12.024" font-family="Calibri"><tspan x="0 6.3606958 12.120192 18.468864 21.114143 27.462816 32.1642 38.476799 44.236298 47.001816 49.767338 55.214207 57.703175 64.039825 70.412544 73.178062 78.576843 81.222122 87.570793 93.558746" y="0">Can usually only be</tspan></text></g><g clip-path="url(#E)" transform="matrix(1.33333 0 0 -1.33333 -96.902 679.428)"><text transform="matrix(1 0 0 -1 309.62 152.66)" style="-inkscape-font-specification:Calibri" font-weight="400" font-size="12" font-family="Calibri"><tspan x="0 4.6919999 11.028 16.775999 20.868 26.844 33.216 35.736 38.495998 42.203999 44.844002 51.192001 57.540001 63.888 66.648003 69.407997 74.099998 80.328003 86.304001 92.568001 94.968002 101.316 106.752 109.356 115.104" y="0">shared if published by a</tspan></text></g><g clip-path="url(#F)" transform="matrix(1.33333 0 0 -1.33333 -96.902 679.428)"><text transform="matrix(1 0 0 -1 309.62 138.26)" style="-inkscape-font-specification:Calibri" font-weight="400" font-size="12" font-family="Calibri"><tspan x="0 5.52 11.844 14.604 20.988001 23.628 31.427999 38.375999 41.256001 47.580002 51.804001 54.444 60.563999 66 72.300003 76.512001 79.272003 85.620003" y="0">gold OA or hybrid</tspan></text></g><g clip-path="url(#G)" transform="matrix(1.33333 0 0 -1.33333 -96.902 679.428)"><text transform="matrix(1 0 0 -1 309.62 123.86)" style="-inkscape-font-specification:Calibri" font-weight="400" font-size="12" font-family="Calibri"><tspan x="0 2.868 9.2279997 15.576 19.764 26.124001 31.872" y="0">journal</tspan></text></g><g clip-path="url(#H)" transform="matrix(1.33333 0 0 -1.33333 -96.902 679.428)"><text transform="matrix(1 0 0 -1 199.34 417.89)" style="-inkscape-font-specification:Calibri" font-weight="400" font-size="12" font-family="Calibri"><tspan x="0 10.2 16.524 20.747999 26.148001 28.896 31.656 38.004002 40.523998 46.872002 50.832001 57.155998 62.807999 66.912003 72.888 77.580002" y="0">Work in progress</tspan></text></g><g clip-path="url(#I)" transform="matrix(1.33333 0 0 -1.33333 -96.902 679.428)"><text transform="matrix(1 0 0 -1 199.34 403.49)" style="-inkscape-font-specification:Calibri" font-weight="400" font-size="12" font-family="Calibri"><tspan x="0 5.5079999 11.868 18.216 27.804001 30.563999 34.535999 38.375999 44.352001 50.616001 53.015999 58.296001 64.272003 68.255997 72.947998 75.708 82.031998" y="0">Submitted version</tspan></text></g><path d="M56.871 296.828c-48.794 26.387-66.26 86.094-39.008 133.347 5.898 10.227 13.64 19.347 22.862 26.92l16.88-5.627-.08-18.253c-29.37-25.707-31.382-69.293-4.494-97.36a71.547 71.547 0 0 1 18.387-13.813z" fill="#008300" fill-rule="evenodd"/></svg>